{
  "accessors": [
    {
      "bufferView": 1,
      "componentType": 5126,
      "count": 65532,
      "max": [
        16.555332183837891,
        0.87112599611282349,
        16.215066909790039
      ],
      "min": [
        -10.815763473510742,
        -21.559268951416016,
        -10.773189544677734
      ],
      "type": "VEC3"
    },
    {
      "bufferView": 1,
      "byteOffset": 786384,
      "componentType": 5126,
      "count": 65532,
      "max": [
        0.99975490570068359,
        0.96055698394775391,
        0.99990808963775635
      ],
      "min": [
        -0.99983829259872437,
        -1,
        -0.99999666213989258
      ],
      "type": "VEC3"
    },
    {
      "bufferView": 2,
      "componentType": 5126,
      "count": 65532,
      "max": [
        0.99215686321258545,
        0.97647058963775635,
        0.90980392694473267,
        1
      ],
      "min": [
        0.058823529630899429,
        0.039215687662363052,
        0.047058824449777603,
        1
      ],
      "type": "VEC4"
    },
    {
      "bufferView": 0,
      "componentType": 5125,
      "count": 327414,
      "max": [
        65531
      ],
      "min": [
        0
      ],
      "type": "SCALAR"
    },
    {
      "bufferView": 1,
      "byteOffset": 1572768,
      "componentType": 5126,
      "count": 65532,
      "max": [
        15.348520278930664,
        0.86155402660369873,
        15.911035537719727
      ],
      "min": [
        -10.474212646484375,
        -18.419944763183594,
        -12.369267463684082
      ],
      "type": "VEC3"
    },
    {
      "bufferView": 1,
      "byteOffset": 2359152,
      "componentType": 5126,
      "count": 65532,
      "max": [
        0.99940717220306396,
        0.93369400501251221,
        0.99971950054168701
      ],
      "min": [
        -0.99973416328430176,
        -0.99999970197677612,
        -0.99966198205947876
      ],
      "type": "VEC3"
    },
    {
      "bufferView": 2,
      "byteOffset": 1048512,
      "componentType": 5126,
      "count": 65532,
      "max": [
        0.99215686321258545,
        0.97647058963775635,
        0.90980392694473267,
        1
      ],
      "min": [
        0.058823529630899429,
        0.039215687662363052,
        0.047058824449777603,
        1
      ],
      "type": "VEC4"
    },
    {
      "bufferView": 0,
      "byteOffset": 1309656,
      "componentType": 5125,
      "count": 312111,
      "max": [
        65531
      ],
      "min": [
        0
      ],
      "type": "SCALAR"
    },
    {
      "bufferView": 1,
      "byteOffset": 3145536,
      "componentType": 5126,
      "count": 65532,
      "max": [
        10.910757064819336,
        0.23568199574947357,
        8.766627311706543
      ],
      "min": [
        -10.718017578125,
        -22.820489883422852,
        -10.621088027954102
      ],
      "type": "VEC3"
    },
    {
      "bufferView": 1,
      "byteOffset": 3931920,
      "componentType": 5126,
      "count": 65532,
      "max": [
        0.99664735794067383,
        0.90770977735519409,
        0.99990218877792358
      ],
      "min": [
        -0.99924105405807495,
        -0.99999421834945679,
        -0.99780404567718506
      ],
      "type": "VEC3"
    },
    {
      "bufferView": 2,
      "byteOffset": 2097024,
      "componentType": 5126,
      "count": 65532,
      "max": [
        0.99215686321258545,
        0.95686274766921997,
        0.89411765336990356,
        1
      ],
      "min": [
        0.08235294371843338,
        0.066666670143604279,
        0.058823529630899429,
        1
      ],
      "type": "VEC4"
    },
    {
      "bufferView": 0,
      "byteOffset": 2558100,
      "componentType": 5125,
      "count": 328335,
      "max": [
        65531
      ],
      "min": [
        0
      ],
      "type": "SCALAR"
    },
    {
      "bufferView": 1,
      "byteOffset": 4718304,
      "componentType": 5126,
      "count": 65532,
      "max": [
        8.9985466003417969,
        0.86518901586532593,
        11.270689010620117
      ],
      "min": [
        -10.825742721557617,
        -22.975311279296875,
        -12.050374984741211
      ],
      "type": "VEC3"
    },
    {
      "bufferView": 1,
      "byteOffset": 5504688,
      "componentType": 5126,
      "count": 65532,
      "max": [
        0.99946343898773193,
        0.9345136284828186,
        0.99889236688613892
      ],
      "min": [
        -0.99926072359085083,
        -0.99999481439590454,
        -0.99961298704147339
      ],
      "type": "VEC3"
    },
    {
      "bufferView": 2,
      "byteOffset": 3145536,
      "componentType": 5126,
      "count": 65532,
      "max": [
        0.99215686321258545,
        0.94901961088180542,
        0.85882353782653809,
        1
      ],
      "min": [
        0.074509806931018829,
        0.066666670143604279,
        0.058823529630899429,
        1
      ],
      "type": "VEC4"
    },
    {
      "bufferView": 0,
      "byteOffset": 3871440,
      "componentType": 5125,
      "count": 308940,
      "max": [
        65531
      ],
      "min": [
        0
      ],
      "type": "SCALAR"
    },
    {
      "bufferView": 1,
      "byteOffset": 6291072,
      "componentType": 5126,
      "count": 65534,
      "max": [
        17.777090072631836,
        0.87061697244644165,
        11.471153259277344
      ],
      "min": [
        0.79030400514602661,
        -22.976943969726562,
        -9.4545383453369141
      ],
      "type": "VEC3"
    },
    {
      "bufferView": 1,
      "byteOffset": 7077480,
      "componentType": 5126,
      "count": 65534,
      "max": [
        0.99991333484649658,
        0.99238073825836182,
        0.99951547384262085
      ],
      "min": [
        -0.99813920259475708,
        -0.99999767541885376,
        -0.99980378150939941
      ],
      "type": "VEC3"
    },
    {
      "bufferView": 2,
      "byteOffset": 4194048,
      "componentType": 5126,
      "count": 65534,
      "max": [
        0.88235294818878174,
        0.78431373834609985,
        0.69411766529083252,
        1
      ],
      "min": [
        0.074509806931018829,
        0.047058824449777603,
        0.054901961237192154,
        1
      ],
      "type": "VEC4"
    },
    {
      "bufferView": 0,
      "byteOffset": 5107200,
      "componentType": 5125,
      "count": 271299,
      "max": [
        65533
      ],
      "min": [
        0
      ],
      "type": "SCALAR"
    },
    {
      "bufferView": 1,
      "byteOffset": 7863888,
      "componentType": 5126,
      "count": 30770,
      "max": [
        17.704952239990234,
        0.8661540150642395,
        11.482379913330078
      ],
      "min": [
        -10.825742721557617,
        -3.1514759063720703,
        -12.369267463684082
      ],
      "type": "VEC3"
    },
    {
      "bufferView": 1,
      "byteOffset": 8233128,
      "componentType": 5126,
      "count": 30770,
      "max": [
        0.99991333484649658,
        0.96138763427734375,
        0.99990218877792358
      ],
      "min": [
        -0.99985438585281372,
        -0.99999880790710449,
        -0.99995571374893188
      ],
      "type": "VEC3"
    },
    {
      "bufferView": 2,
      "byteOffset": 5242592,
      "componentType": 5126,
      "count": 30770,
      "max": [
        0.99215686321258545,
        0.95686274766921997,
        0.87450981140136719,
        1
      ],
      "min": [
        0.066666670143604279,
        0.047058824449777603,
        0.047058824449777603,
        1
      ],
      "type": "VEC4"
    },
    {
      "bufferView": 0,
      "byteOffset": 6192396,
      "componentType": 5125,
      "count": 96387,
      "max": [
        30769
      ],
      "min": [
        0
      ],
      "type": "SCALAR"
    }
  ],
  "asset": {
    "extras": {
      "author": "Austin Beaulier (https://sketchfab.com/Austin.Beaulier)",
      "license": "CC-BY-4.0 (http://creativecommons.org/licenses/by/4.0/)",
      "source": "https://sketchfab.com/models/7a770008f6734b43bae9305100b73894",
      "title": "Hieroglyph Stone Pyramid"
    },
    "generator": "Sketchfab-3.39.1",
    "version": "2.0"
  },
  "bufferViews": [
    {
      "buffer": 0,
      "byteLength": 6577944,
      "byteOffset": 0,
      "name": "floatBufferViews",
      "target": 34963
    },
    {
      "buffer": 0,
      "byteLength": 8602368,
      "byteOffset": 6577944,
      "byteStride": 12,
      "name": "floatBufferViews",
      "target": 34962
    },
    {
      "buffer": 0,
      "byteLength": 5734912,
      "byteOffset": 15180312,
      "byteStride": 16,
      "name": "floatBufferViews",
      "target": 34962
    }
  ],
  "buffers": [
    {
      "byteLength": 20915224,
      "uri": "scene.bin"
    }
  ],
  "materials": [
    {
      "doubleSided": true,
      "emissiveFactor": [
        0,
        0,
        0
      ],
      "name": "material_0",
      "pbrMetallicRoughness": {
        "baseColorFactor": [
          1,
          1,
          1,
          1
        ],
        "metallicFactor": 0,
        "roughnessFactor": 0.59999999999999998
      }
    }
  ],
  "meshes": [
    {
      "primitives": [
        {
          "attributes": {
            "COLOR_0": 2,
            "NORMAL": 1,
            "POSITION": 0
          },
          "indices": 3,
          "material": 0,
          "mode": 4
        }
      ]
    },
    {
      "primitives": [
        {
          "attributes": {
            "COLOR_0": 6,
            "NORMAL": 5,
            "POSITION": 4
          },
          "indices": 7,
          "material": 0,
          "mode": 4
        }
      ]
    },
    {
      "primitives": [
        {
          "attributes": {
            "COLOR_0": 10,
            "NORMAL": 9,
            "POSITION": 8
          },
          "indices": 11,
          "material": 0,
          "mode": 4
        }
      ]
    },
    {
      "primitives": [
        {
          "attributes": {
            "COLOR_0": 14,
            "NORMAL": 13,
            "POSITION": 12
          },
          "indices": 15,
          "material": 0,
          "mode": 4
        }
      ]
    },
    {
      "primitives": [
        {
          "attributes": {
            "COLOR_0": 18,
            "NORMAL": 17,
            "POSITION": 16
          },
          "indices": 19,
          "material": 0,
          "mode": 4
        }
      ]
    },
    {
      "primitives": [
        {
          "attributes": {
            "COLOR_0": 22,
            "NORMAL": 21,
            "POSITION": 20
          },
          "indices": 23,
          "material": 0,
          "mode": 4
        }
      ]
    }
  ],
  "nodes": [
    {
      "children": [
        1
      ],
      "name": "RootNode (gltf orientation matrix)",
      "rotation": [
        -0.70710678118654746,
        -0,
        -0,
        0.70710678118654757
      ]
    },
    {
      "children": [
        2
      ],
      "matrix": [
        0,
        1,
        0,
        0,
        0,
        0,
        -1,
        0,
        -1,
        0,
        0,
        0,
        5.3984818458557129,
        -14.528576850891113,
        -9.1300945281982422,
        1
      ],
      "name": "RootNode (model correction matrix)"
    },
    {
      "children": [
        3,
        4,
        5,
        6,
        7,
        8
      ],
      "name": "pyramid.obj.cleaner.materialmerger.gles"
    },
    {
      "mesh": 0,
      "name": ""
    },
    {
      "mesh": 1,
      "name": ""
    },
    {
      "mesh": 2,
      "name": ""
    },
    {
      "mesh": 3,
      "name": ""
    },
    {
      "mesh": 4,
      "name": ""
    },
    {
      "mesh": 5,
      "name": ""
    }
  ],
  "scene": 0,
  "scenes": [
    {
      "name": "OSG_Scene",
      "nodes": [
        0
      ]
    }
  ]
}

